# xmcd
#
# Track frame offsets:
#	150
#	11529
#	21654
#	34077
#	44780
#	53632
#	64945
#	80824
#	92933
#
# Disc length: 1246 seconds
#
# Revision: 0
# Processed by: cddbd v1.5.1PL0 Copyright (c) Steve Scherf et al.
# Submitted via: audiograbber 1.83.01
#
DISCID=7d04dc09
DTITLE=Kacie - Giddy Up Y'all
DYEAR=2001
DGENRE=Country
TTITLE0=I'm Little But I'm Loud
TTITLE1=Sweet Nothin's
TTITLE2=Blue Moon of Kentucky
TTITLE3=Hey Good Lookin'
TTITLE4=Great Balls of Fire
TTITLE5=Singin' The Blues
TTITLE6=Long Tall Texan
TTITLE7=How Blue
TTITLE8=End
EXTD=
EXTT0=
EXTT1=
EXTT2=
EXTT3=
EXTT4=
EXTT5=
EXTT6=
EXTT7=
EXTT8=
PLAYORDER=
